# xmcd
#
# Track frame offsets:
#	150
#	16095
#	31506
#	47924
#	62550
#	78786
#	98045
#	114206
#	128020
#	144278
#
# Disc length: 2099 seconds
#
# Revision: 0
# Processed by: cddbd v1.5.2PL0 Copyright (c) Steve Scherf et al.
# Submitted via: EZCDAudioConverter 1.5.4.1
#
DISCID=6708310a
DTITLE=Jason Charles Miller - Uncountry
DYEAR=2011
DGENRE=Country
TTITLE0=Uncountry
TTITLE1=The Dotted Line
TTITLE2=The River
TTITLE3=You Must Have Loved Me a Lot
TTITLE4=You Get What You Pay For
TTITLE5=Learn to Live With it
TTITLE6=Into Temptation
TTITLE7=Still Doing Time
TTITLE8=The Devil
TTITLE9=Drag Me Down
EXTD=
EXTT0=
EXTT1=
EXTT2=
EXTT3=
EXTT4=
EXTT5=
EXTT6=
EXTT7=
EXTT8=
EXTT9=
PLAYORDER=
